<?xml version="1.0" standalone="no"?>
<!DOCTYPE svg PUBLIC "-//W3C//DTD SVG 20010904//EN"
 "http://www.w3.org/TR/2001/REC-SVG-20010904/DTD/svg10.dtd">
<svg version="1.0" xmlns="http://www.w3.org/2000/svg"
 width="500.000000pt" height="500.000000pt" viewBox="0 0 500.000000 500.000000"
 preserveAspectRatio="xMidYMid meet">
<metadata>
Created by potrace 1.14, written by Peter Selinger 2001-2017
</metadata>
<g transform="translate(0.000000,500.000000) scale(0.100000,-0.100000)"
fill="#000000" stroke="none">
<path d="M1231 4053 c0 -5 4 -17 9 -28 8 -18 9 -17 9 8 1 15 -3 27 -9 27 -5 0
-10 -3 -9 -7z"/>
<path d="M1287 4023 c-4 -3 -7 -11 -7 -17 0 -6 5 -5 12 2 6 6 9 14 7 17 -3 3
-9 2 -12 -2z"/>
<path d="M1561 4004 c0 -11 3 -14 6 -6 3 7 2 16 -1 19 -3 4 -6 -2 -5 -13z"/>
<path d="M1190 3995 c7 -8 20 -15 28 -15 13 0 12 3 -4 15 -25 19 -40 19 -24 0z"/>
<path d="M1585 3990 c-3 -5 -1 -10 4 -10 6 0 11 5 11 10 0 6 -2 10 -4 10 -3 0
-8 -4 -11 -10z"/>
<path d="M1525 3980 c3 -5 11 -10 16 -10 6 0 7 5 4 10 -3 6 -11 10 -16 10 -6
0 -7 -4 -4 -10z"/>
<path d="M1125 3968 c-3 -7 -4 -26 -2 -43 2 -29 0 -30 -40 -30 -22 0 -39 -3
-37 -7 2 -4 0 -9 -6 -13 -6 -3 -22 7 -36 24 -23 28 -64 45 -49 21 4 -6 11 -8
16 -5 5 3 6 0 3 -8 -3 -8 -1 -18 5 -22 6 -3 11 -1 11 6 0 16 13 3 16 -16 4
-24 -27 -17 -58 12 -15 14 -31 24 -35 20 -9 -10 28 -48 40 -40 6 3 7 1 3 -5
-12 -19 -44 -14 -51 8 -8 26 -41 44 -51 28 -4 -6 -3 -8 4 -4 11 7 42 -19 42
-36 0 -6 -10 -3 -22 8 l-21 19 18 -28 c18 -28 18 -29 -11 -55 -24 -23 -26 -27
-10 -30 22 -5 56 25 56 50 0 13 7 18 25 18 17 0 25 -6 25 -17 0 -9 -3 -13 -7
-10 -8 8 -33 -12 -33 -26 0 -6 7 -2 16 9 14 17 15 17 10 1 -9 -29 10 -10 24
23 13 32 28 38 48 18 9 -9 12 -8 12 5 0 20 2 20 35 5 22 -10 30 -8 54 10 25
18 31 19 47 8 16 -12 15 -14 -14 -21 -19 -4 -32 -13 -32 -22 0 -20 55 -11 81
13 10 9 24 14 31 12 8 -3 3 -11 -15 -22 -15 -10 -27 -25 -27 -32 0 -25 39 -15
62 17 22 30 25 31 82 25 52 -5 63 -3 82 15 15 14 29 19 41 14 16 -6 14 -8 -10
-21 -31 -17 -31 -41 -1 -36 10 2 31 15 45 28 31 30 47 19 18 -12 -20 -21 -19
-44 1 -44 6 0 20 15 32 34 18 27 30 35 60 38 21 2 38 0 38 -4 0 -3 8 -8 18
-11 16 -4 16 -4 0 -10 -10 -4 -25 -9 -34 -12 -8 -3 -12 -9 -9 -15 11 -18 47
-10 71 15 13 14 19 25 14 25 -5 0 -10 12 -12 28 -3 27 -20 34 -26 10 -2 -9 0
-8 7 2 9 13 11 13 11 -2 0 -33 -23 -32 -54 3 -17 19 -28 30 -24 25 3 -4 4 -15
1 -24 -4 -10 -2 -13 5 -8 6 3 13 2 17 -4 4 -6 -6 -10 -24 -10 -32 0 -51 18
-31 30 8 5 7 9 -4 13 -9 4 -16 11 -16 17 0 6 5 8 12 4 7 -4 8 -3 4 4 -11 18
-46 15 -46 -4 0 -8 5 -24 10 -35 8 -14 7 -19 -3 -19 -8 0 -21 19 -30 42 -13
32 -20 39 -29 30 -9 -9 -9 -18 0 -37 10 -22 9 -25 -8 -25 -16 0 -19 7 -18 33
1 37 -7 57 -24 57 -6 0 -8 -15 -6 -35 2 -19 0 -35 -5 -35 -4 0 -6 -4 -3 -9 7
-11 -17 -21 -50 -21 -23 0 -31 6 -70 55 -23 30 -5 -5 24 -43 l24 -34 -28 4
c-16 2 -29 8 -30 13 0 6 -4 18 -7 28 -4 9 -9 24 -12 32 -2 8 -14 15 -26 15
-15 0 -19 -3 -12 -12 5 -7 14 -25 21 -40 10 -23 9 -28 -3 -28 -9 0 -19 17 -26
45 -14 56 -34 60 -26 5 5 -37 4 -39 -14 -29 -14 7 -18 16 -13 34 10 42 -18 90
-31 53z m-184 -85 c13 -16 12 -17 -3 -4 -10 7 -18 15 -18 17 0 8 8 3 21 -13z
m-51 -88 c-7 -8 -17 -15 -23 -15 -5 0 -2 9 8 20 21 23 35 19 15 -5z m780 15
c0 -5 -12 -10 -27 -9 l-28 1 25 8 c14 4 26 8 28 9 1 1 2 -3 2 -9z"/>
<path d="M1296 3964 c-10 -25 1 -29 14 -5 6 12 7 21 1 21 -5 0 -12 -7 -15 -16z"/>
<path d="M1042 3945 c1 -13 4 -22 6 -20 2 2 19 -3 39 -11 38 -16 38 -9 0 34
-27 29 -47 28 -45 -3z"/>
<path d="M1760 3961 c0 -5 5 -13 10 -16 6 -3 10 -2 10 4 0 5 -4 13 -10 16 -5
3 -10 2 -10 -4z"/>
<path d="M1330 3951 c0 -5 -3 -17 -7 -27 -4 -11 -3 -15 5 -11 6 4 22 2 36 -4
36 -17 44 -4 16 26 -23 25 -50 33 -50 16z"/>
<path d="M1735 3900 c-3 -6 1 -7 9 -4 18 7 21 14 7 14 -6 0 -13 -4 -16 -10z"/>
<path d="M1835 3899 c-4 -6 -5 -12 -2 -15 2 -3 7 2 10 11 7 17 1 20 -8 4z"/>
<path d="M1713 3870 c-1 -11 2 -22 8 -25 5 -4 4 -15 -3 -28 -6 -12 -10 -24 -9
-27 1 -2 -3 -6 -10 -9 -7 -2 -9 1 -4 9 5 9 4 11 -3 6 -7 -4 -12 -11 -12 -17 0
-17 26 -9 50 16 32 34 54 33 47 -2 l-6 -28 11 27 c8 17 21 28 37 31 25 4 25 4
-3 6 -22 1 -27 5 -24 19 5 18 -13 42 -32 42 -5 0 -10 -4 -10 -10 0 -5 5 -9 11
-7 6 1 14 -4 17 -12 3 -10 0 -11 -9 -5 -12 7 -12 5 0 -9 14 -18 5 -22 -23 -11
-9 3 -13 11 -9 17 4 6 1 7 -7 2 -10 -6 -12 -4 -7 8 3 9 3 18 -1 21 -4 3 -8 -4
-9 -14z"/>
<path d="M808 3853 c7 -3 16 -2 19 1 4 3 -2 6 -13 5 -11 0 -14 -3 -6 -6z"/>
<path d="M840 3840 c0 -5 7 -10 15 -10 8 0 15 5 15 10 0 6 -7 10 -15 10 -8 0
-15 -4 -15 -10z"/>
<path d="M995 3829 c-4 -6 -5 -12 -2 -15 2 -3 7 2 10 11 7 17 1 20 -8 4z"/>
<path d="M1006 3805 c-3 -9 -11 -13 -17 -9 -8 4 -9 3 -5 -4 4 -7 11 -12 16
-12 9 0 23 31 16 37 -2 2 -6 -3 -10 -12z"/>
<path d="M3380 3656 c-177 -33 -297 -91 -384 -188 -106 -116 -151 -251 -144
-426 3 -83 8 -107 34 -162 62 -131 179 -225 371 -300 58 -23 253 -84 432 -135
487 -139 591 -182 691 -292 83 -90 116 -214 91 -348 -37 -201 -214 -359 -460
-410 -356 -73 -745 35 -998 278 l-63 60 0 132 c0 115 -2 136 -19 156 -16 20
-23 22 -47 14 l-29 -10 0 -355 0 -355 29 -10 c24 -8 31 -6 47 14 16 20 19 40
19 132 0 67 4 110 11 115 6 3 30 -8 52 -25 309 -230 581 -304 937 -256 206 27
342 87 456 200 192 190 233 509 89 703 -106 145 -263 223 -690 342 -447 125
-593 178 -685 246 -74 56 -106 94 -139 164 -23 48 -26 68 -26 160 0 98 2 110
32 173 62 130 184 223 352 269 106 29 403 32 501 5 155 -44 349 -158 479 -283
l80 -76 3 -137 3 -136 33 -3 c63 -6 62 -14 62 359 0 365 -1 369 -54 369 -39 0
-46 -18 -46 -126 0 -110 -5 -134 -26 -134 -8 0 -53 29 -101 65 -112 82 -261
157 -383 190 -81 23 -120 27 -265 30 -116 3 -194 0 -245 -9z"/>
<path d="M483 3640 c-18 -7 -23 -17 -23 -45 0 -48 22 -55 179 -55 85 0 131 -4
139 -12 9 -9 12 -256 12 -1048 0 -992 -1 -1038 -18 -1053 -15 -14 -42 -17
-149 -17 -72 0 -138 -3 -147 -6 -24 -9 -21 -71 3 -84 13 -6 141 -10 350 -10
286 0 332 2 345 16 19 18 20 38 6 65 -10 17 -22 19 -131 19 -66 0 -129 5 -140
10 -18 10 -19 26 -19 473 0 347 3 466 12 475 9 9 80 12 257 12 l246 0 335
-461 c184 -254 339 -468 344 -477 15 -25 -14 -32 -144 -32 -85 0 -130 -4 -138
-12 -19 -19 -15 -66 7 -78 27 -14 695 -14 722 0 22 12 26 59 7 78 -8 8 -53 12
-137 12 -105 0 -131 3 -156 19 -24 14 -279 355 -669 893 -29 41 -10 58 69 58
152 0 317 48 415 122 153 114 223 274 224 508 0 146 -18 230 -71 332 -46 89
-90 138 -171 192 -95 63 -195 94 -339 106 -148 12 -1190 12 -1220 0z m1322
-115 c211 -55 333 -185 371 -397 24 -133 7 -270 -48 -384 -61 -127 -195 -221
-353 -249 -107 -19 -854 -22 -873 -3 -17 17 -17 1019 0 1036 9 9 118 12 428
12 342 0 426 -3 475 -15z"/>
<path d="M2492 3120 c-99 -60 -65 -214 49 -227 83 -9 139 41 139 124 -1 99
-103 155 -188 103z"/>
<path d="M2492 1990 c-99 -60 -65 -214 49 -227 83 -9 139 41 139 124 -1 99
-103 155 -188 103z"/>
<path d="M3570 1183 c0 -5 5 -15 10 -23 8 -12 10 -11 10 8 0 12 -4 22 -10 22
-5 0 -10 -3 -10 -7z"/>
<path d="M3620 1145 c-8 -9 -8 -15 -2 -15 12 0 26 19 19 26 -2 2 -10 -2 -17
-11z"/>
<path d="M3901 1144 c0 -11 3 -14 6 -6 3 7 2 16 -1 19 -3 4 -6 -2 -5 -13z"/>
<path d="M3530 1125 c7 -8 20 -15 29 -15 13 1 13 3 -3 15 -26 19 -42 19 -26 0z"/>
<path d="M3860 1122 c0 -12 19 -26 26 -19 2 2 -2 10 -11 17 -9 8 -15 8 -15 2z"/>
<path d="M3590 1117 c0 -15 32 -72 58 -99 l26 -28 -32 0 c-18 0 -31 3 -31 8 1
4 -2 22 -6 40 -6 26 -12 32 -34 32 -14 0 -21 -4 -15 -8 6 -4 16 -22 22 -39 9
-26 8 -33 -2 -33 -8 0 -19 20 -25 45 -14 54 -35 61 -29 10 3 -28 1 -35 -11
-33 -12 2 -16 16 -16 48 0 36 -4 45 -19 48 -17 4 -18 0 -12 -35 l8 -38 -41 39
c-29 28 -42 35 -45 25 -7 -22 -4 -49 5 -43 9 5 69 -23 69 -33 0 -3 -18 -3 -40
0 -22 3 -38 1 -35 -3 3 -5 0 -12 -6 -16 -6 -4 -15 -1 -20 7 -17 31 -35 47 -58
54 -16 5 -21 4 -17 -4 4 -6 17 -11 29 -12 12 0 16 -3 9 -6 -10 -4 -8 -11 9
-29 22 -24 22 -24 2 -24 -11 0 -28 10 -37 23 -13 19 -15 19 -9 2 6 -18 5 -18
-10 -6 -9 7 -14 17 -11 22 3 5 0 9 -5 9 -17 0 -13 -15 7 -33 10 -10 22 -14 27
-10 4 5 5 2 1 -4 -13 -22 -40 -14 -58 17 -16 27 -48 42 -48 22 0 -15 36 -42
45 -35 4 5 5 2 1 -5 -5 -9 -22 -11 -54 -8 -35 4 -39 3 -17 -3 30 -8 30 -8 5
-13 -14 -3 -6 -4 18 -2 47 4 53 -5 20 -31 -22 -16 -21 -16 6 0 21 13 27 14 24
3 -3 -7 -15 -19 -29 -25 -15 -8 -18 -13 -8 -13 20 0 49 31 49 53 0 10 8 17 21
17 13 0 18 -4 13 -12 -5 -8 -2 -8 10 1 16 13 16 12 5 -12 -7 -15 -16 -27 -21
-27 -5 0 -6 5 -2 12 4 7 3 8 -4 4 -17 -10 -15 -26 3 -26 9 0 23 16 32 35 18
37 31 43 51 23 9 -9 12 -8 12 6 0 14 5 16 23 10 31 -10 57 -7 76 9 10 10 23
12 36 7 18 -7 17 -9 -12 -20 -35 -13 -45 -40 -15 -40 9 0 32 9 50 20 18 11 40
20 50 20 11 0 6 -7 -15 -20 -18 -11 -33 -27 -33 -35 0 -25 34 -17 60 15 26 31
70 41 117 25 16 -5 28 -1 45 17 13 12 32 22 41 20 24 -5 21 -17 -8 -30 -14 -6
-25 -16 -25 -22 0 -19 41 -10 66 15 14 14 32 25 41 25 13 0 11 -6 -10 -28 -32
-33 -34 -42 -8 -42 11 0 28 13 38 30 15 26 23 30 58 30 22 0 45 -4 50 -8 20
-13 10 -37 -15 -39 -23 -2 -23 -2 -5 6 19 9 19 10 -3 10 -15 1 -22 -4 -20 -11
7 -22 46 -21 65 1 9 12 27 21 38 21 18 0 17 -3 -9 -23 -20 -16 -26 -26 -17
-31 7 -4 10 -2 9 5 -2 6 3 14 11 17 9 3 11 0 6 -9 -5 -8 4 -3 18 10 22 20 29
22 42 11 9 -8 15 -8 15 -2 0 6 10 12 22 14 12 2 23 10 25 18 4 12 3 13 -5 1
-12 -17 -46 -7 -40 11 5 14 -15 38 -31 38 -6 0 -11 -5 -11 -10 0 -6 5 -9 11
-8 6 2 14 -3 17 -11 3 -10 0 -11 -9 -5 -12 7 -12 5 0 -9 14 -17 5 -22 -23 -11
-8 3 -13 11 -10 18 3 7 -1 18 -9 24 -11 9 -14 8 -14 -3 0 -8 4 -12 9 -9 4 3 8
0 8 -6 0 -16 -31 -25 -40 -10 -4 7 -6 22 -4 34 3 12 0 10 -7 -7 l-11 -29 -33
32 -34 32 3 -26 c3 -27 -9 -33 -34 -15 -12 8 -12 12 -2 16 10 4 9 8 -5 19 -16
12 -16 15 -3 24 9 5 10 10 3 10 -6 0 -18 3 -27 6 -12 5 -16 0 -16 -19 0 -14 5
-29 10 -32 14 -9 12 -25 -3 -25 -8 0 -21 18 -30 40 -8 22 -20 40 -26 40 -14 0
-14 -11 -1 -45 9 -23 8 -26 -7 -23 -11 2 -18 13 -19 28 -2 54 -5 60 -20 60
-13 0 -15 -7 -11 -37 l6 -36 -32 31 c-32 31 -57 41 -57 23 0 -5 -3 -17 -7 -27
-4 -11 -3 -15 4 -11 6 4 28 -1 49 -10 l39 -16 -38 -10 c-46 -11 -66 4 -103 73
-13 25 -23 41 -24 37z m-365 -98 c11 -17 -1 -21 -15 -4 -8 9 -8 15 -2 15 6 0
14 -5 17 -11z m751 -26 c-7 -7 -26 7 -26 19 0 6 6 6 15 -2 9 -7 13 -15 11 -17z"/>
<path d="M3636 1094 c-10 -25 1 -29 14 -5 6 12 7 21 1 21 -5 0 -12 -7 -15 -16z"/>
<path d="M4100 1091 c0 -5 5 -13 10 -16 6 -3 10 -2 10 4 0 5 -4 13 -10 16 -5
3 -10 2 -10 -4z"/>
<path d="M4065 1070 c3 -5 11 -10 16 -10 6 0 7 5 4 10 -3 6 -11 10 -16 10 -6
0 -7 -4 -4 -10z"/>
<path d="M4141 1064 c0 -11 3 -14 6 -6 3 7 2 16 -1 19 -3 4 -6 -2 -5 -13z"/>
<path d="M4177 1043 c-4 -3 -7 -13 -7 -22 1 -13 3 -13 11 2 11 19 8 33 -4 20z"/>
<path d="M3335 959 c-4 -6 -5 -12 -2 -15 2 -3 7 2 10 11 7 17 1 20 -8 4z"/>
<path d="M3346 935 c-3 -9 -11 -13 -17 -9 -8 5 -9 3 -4 -5 6 -10 11 -9 23 3 9
8 13 18 10 21 -3 3 -8 -1 -12 -10z"/>
</g>
</svg>
