<?xml version="1.0" standalone="no"?>
<!DOCTYPE svg PUBLIC "-//W3C//DTD SVG 20010904//EN"
 "http://www.w3.org/TR/2001/REC-SVG-20010904/DTD/svg10.dtd">
<svg version="1.0" xmlns="http://www.w3.org/2000/svg"
 width="500.000000pt" height="500.000000pt" viewBox="0 0 500.000000 500.000000"
 preserveAspectRatio="xMidYMid meet">
<metadata>
Created by potrace 1.14, written by Peter Selinger 2001-2017
</metadata>
<g transform="translate(0.000000,500.000000) scale(0.100000,-0.100000)"
fill="#000000" stroke="none">
<path d="M2004 4071 c-58 -35 -76 -136 -33 -187 61 -74 195 -51 219 37 32 117
-86 211 -186 150z"/>
<path d="M2834 3754 c-73 -36 -87 -151 -25 -206 75 -67 211 -5 211 97 0 63
-63 125 -127 125 -15 0 -42 -7 -59 -16z"/>
<path d="M3322 2310 c-256 -58 -398 -243 -379 -494 9 -119 63 -206 175 -279
86 -57 174 -91 397 -156 446 -130 541 -166 623 -236 23 -20 54 -58 70 -83 25
-43 27 -56 27 -152 0 -96 -2 -110 -29 -163 -58 -114 -196 -209 -346 -238 -36
-7 -119 -12 -185 -12 -232 1 -435 81 -607 242 l-48 44 0 114 c0 111 -1 114
-25 125 -19 8 -28 8 -40 -2 -13 -11 -15 -50 -13 -288 3 -249 5 -276 21 -286
12 -8 22 -8 35 0 14 9 18 29 20 108 2 70 6 96 16 96 7 0 37 -18 67 -41 205
-154 437 -219 681 -189 287 34 456 149 519 352 20 64 27 187 14 248 -13 59
-55 131 -104 179 -88 86 -196 131 -580 240 -423 122 -511 167 -583 304 -19 34
-23 58 -23 127 0 72 4 93 28 141 52 106 145 181 270 215 76 21 269 29 352 15
149 -26 310 -111 438 -230 l66 -63 3 -105 c3 -88 6 -108 21 -117 12 -8 22 -8
35 0 15 10 17 37 20 288 l2 276 -25 12 c-44 20 -55 -2 -55 -104 0 -65 -4 -90
-13 -94 -8 -3 -61 27 -118 65 -176 118 -318 162 -526 160 -76 0 -147 -7 -201
-19z"/>
<path d="M636 2295 c-9 -9 -16 -22 -16 -29 0 -29 25 -36 128 -36 57 0 112 -5
123 -10 19 -10 19 -30 19 -844 0 -675 -2 -836 -13 -844 -7 -6 -64 -13 -127
-14 -95 -3 -115 -6 -124 -21 -8 -12 -8 -22 0 -35 10 -15 35 -17 289 -17 254 0
279 2 289 18 8 12 8 22 0 35 -9 14 -29 17 -112 20 -68 2 -104 7 -111 16 -8 9
-10 124 -9 382 l3 369 205 3 205 2 270 -372 c149 -204 270 -376 270 -382 0 -7
-41 -13 -109 -16 -89 -4 -111 -8 -120 -23 -8 -12 -8 -22 0 -35 10 -15 37 -17
285 -20 151 -1 284 0 297 3 16 4 22 13 22 34 0 37 -11 41 -131 41 -98 0 -100
0 -133 33 -45 43 -518 694 -520 715 -1 13 17 18 109 28 260 28 402 145 450
369 51 242 -37 479 -212 572 -123 66 -125 66 -694 70 -468 4 -518 3 -533 -12z
m1010 -75 c100 -13 175 -44 233 -96 133 -120 170 -360 82 -538 -56 -114 -165
-185 -314 -205 -113 -16 -649 -15 -665 1 -17 17 -17 819 0 836 15 15 554 16
664 2z"/>
</g>
</svg>
